<svg width="46" height="46" fill="none" xmlns="http://www.w3.org/2000/svg"><path d="M23 40.178c9.487 0 17.178-7.69 17.178-17.178S32.488 5.822 23 5.822 5.822 13.512 5.822 23c0 9.487 7.69 17.178 17.178 17.178zm0-32.487c8.41 0 15.31 6.9 15.31 15.309 0 8.41-6.9 15.31-15.31 15.31S7.69 31.41 7.69 23 14.59 7.69 23 7.69z" fill="#fff"/><path d="M22.64 32.847L32.488 23l-9.846-9.847-1.294 1.366L29.757 23l-8.41 8.481 1.294 1.366z" fill="#fff"/><path d="M31.122 21.994h-17.25v2.012h17.25v-2.012z" fill="#fff"/></svg>