<svg width="46" height="46" fill="none" xmlns="http://www.w3.org/2000/svg"><path d="M23 40.178c-9.488 0-17.178-7.69-17.178-17.178S13.512 5.822 23 5.822c9.487 0 17.178 7.69 17.178 17.178 0 9.487-7.69 17.178-17.178 17.178zm0-32.487C14.59 7.69 7.69 14.59 7.69 23c0 8.41 6.9 15.31 15.31 15.31S38.31 31.41 38.31 23 31.41 7.69 23 7.69z" fill="#fff"/><path d="M23.36 32.847L13.511 23l9.847-9.847 1.294 1.366L16.243 23l8.41 8.481-1.294 1.366z" fill="#fff"/><path d="M14.878 21.994h17.25v2.012h-17.25v-2.012z" fill="#fff"/></svg>