<svg width="396" height="1598" fill="none" xmlns="http://www.w3.org/2000/svg"><rect width="396" height="1598" rx="20" fill="#fff"/><path d="M142.365 58h-3.144l-1.25-3.252h-5.723L131.066 58H128l5.576-14.316h3.057L142.365 58zm-5.322-5.664l-1.973-5.313-1.933 5.313h3.906zm-.342-9.473h-1.728l-2.696-2.92h3.077l1.347 2.92zm12.764.82h5.283c1.191 0 2.1.092 2.725.274a4.792 4.792 0 012.158 1.318c.599.632 1.055 1.407 1.367 2.325.313.911.469 2.037.469 3.378 0 1.179-.147 2.194-.44 3.047-.358 1.042-.869 1.885-1.533 2.53-.501.488-1.178.869-2.031 1.142-.638.202-1.491.303-2.559.303h-5.439V43.684zm2.89 2.422v9.483h2.159c.807 0 1.39-.046 1.748-.137.468-.117.856-.316 1.162-.596.312-.28.566-.738.762-1.377.195-.644.293-1.52.293-2.626 0-1.107-.098-1.957-.293-2.55-.196-.592-.469-1.054-.821-1.386-.351-.332-.797-.557-1.338-.674-.403-.091-1.194-.136-2.373-.136h-1.299zM163.928 58V43.684h10.615v2.422h-7.725v3.173h7.188v2.412h-7.188v3.897h7.998V58h-10.888zm3.672-15.137l1.347-2.92h3.076l-2.685 2.92H167.6zm18.828 9.873l2.802.889c-.429 1.563-1.145 2.725-2.148 3.486-.996.756-2.262 1.133-3.799 1.133-1.901 0-3.463-.648-4.687-1.943-1.224-1.302-1.836-3.08-1.836-5.332 0-2.383.615-4.232 1.845-5.547 1.231-1.322 2.849-1.982 4.854-1.982 1.751 0 3.174.517 4.268 1.552.651.612 1.139 1.491 1.464 2.637l-2.861.684c-.169-.743-.524-1.329-1.064-1.758-.534-.43-1.185-.645-1.954-.645-1.061 0-1.923.381-2.587 1.143-.658.762-.987 1.995-.987 3.7 0 1.81.326 3.1.977 3.868.651.768 1.497 1.152 2.539 1.152.768 0 1.429-.244 1.982-.732.554-.488.951-1.256 1.192-2.305zm4.707-1.806c0-1.459.218-2.683.654-3.672a6.793 6.793 0 011.328-1.963c.567-.58 1.185-1.01 1.856-1.29.892-.377 1.92-.566 3.086-.566 2.109 0 3.795.655 5.058 1.963 1.27 1.309 1.904 3.129 1.904 5.46 0 2.31-.628 4.12-1.884 5.429-1.257 1.302-2.936 1.953-5.039 1.953-2.129 0-3.822-.648-5.078-1.943-1.257-1.302-1.885-3.093-1.885-5.371zm2.978-.098c0 1.621.375 2.852 1.123 3.691.749.834 1.7 1.25 2.852 1.25s2.096-.413 2.832-1.24c.742-.833 1.113-2.08 1.113-3.74 0-1.64-.361-2.865-1.084-3.672-.716-.807-1.67-1.21-2.861-1.21-1.192 0-2.152.41-2.881 1.23-.729.813-1.094 2.044-1.094 3.691zm13.155-7.148h2.89v7.754c0 1.23.036 2.027.108 2.392a2.34 2.34 0 00.879 1.416c.468.352 1.106.527 1.914.527.82 0 1.438-.166 1.855-.498.417-.338.667-.752.752-1.24.085-.488.127-1.299.127-2.431v-7.92h2.891v7.52c0 1.718-.079 2.932-.235 3.642-.156.71-.446 1.308-.869 1.797-.417.488-.976.879-1.68 1.172-.703.286-1.621.43-2.754.43-1.367 0-2.405-.157-3.115-.47-.703-.319-1.26-.729-1.67-1.23-.41-.508-.68-1.038-.81-1.592-.189-.82-.283-2.031-.283-3.633v-7.636zM225.393 58l-5.118-14.316h3.135l3.623 10.595 3.506-10.595h3.066L228.479 58h-3.086zm9.697 0V43.684h6.084c1.53 0 2.64.13 3.33.39.697.254 1.253.71 1.67 1.367.416.658.625 1.41.625 2.256 0 1.075-.316 1.963-.947 2.666-.632.697-1.576 1.136-2.832 1.319.625.364 1.139.765 1.542 1.2.411.437.961 1.212 1.651 2.325L247.961 58h-3.457l-2.09-3.115c-.742-1.113-1.25-1.813-1.523-2.1-.274-.293-.564-.491-.87-.595-.306-.111-.791-.167-1.455-.167h-.586V58h-2.89zm2.89-8.262h2.139c1.387 0 2.253-.058 2.598-.175.345-.118.615-.32.81-.606.196-.286.293-.645.293-1.074 0-.482-.13-.87-.39-1.162-.254-.3-.616-.489-1.084-.567-.235-.032-.938-.049-2.11-.049h-2.256v3.633zM249.445 58V43.684h2.891V58h-2.891zm5.664 0V43.684h6.084c1.53 0 2.64.13 3.33.39.697.254 1.254.71 1.67 1.367.417.658.625 1.41.625 2.256 0 1.075-.315 1.963-.947 2.666-.631.697-1.575 1.136-2.832 1.319.625.364 1.139.765 1.543 1.2.41.437.96 1.212 1.65 2.325L267.98 58h-3.457l-2.089-3.115c-.743-1.113-1.25-1.813-1.524-2.1-.273-.293-.563-.491-.869-.595-.306-.111-.791-.167-1.455-.167H258V58h-2.891zM258 49.738h2.139c1.386 0 2.252-.058 2.597-.175.345-.118.616-.32.811-.606.195-.286.293-.645.293-1.074 0-.482-.13-.87-.391-1.162-.254-.3-.615-.489-1.084-.567-.234-.032-.937-.049-2.109-.049H258v3.633z" fill="#000"/></svg>