<svg width="369" height="327" fill="none" xmlns="http://www.w3.org/2000/svg"><path d="M150.9 241.579l1.822.577c-.28 1.016-.745 1.771-1.397 2.266-.647.491-1.47.737-2.469.737-1.236 0-2.251-.421-3.047-1.263-.795-.847-1.193-2.002-1.193-3.466 0-1.549.4-2.751 1.199-3.606.8-.859 1.852-1.288 3.155-1.288 1.139 0 2.063.336 2.774 1.009.423.398.741.969.952 1.714l-1.86.444c-.11-.482-.34-.863-.691-1.142-.347-.28-.771-.419-1.27-.419-.69 0-1.25.247-1.682.742-.428.495-.641 1.297-.641 2.406 0 1.176.211 2.014.635 2.514.423.499.973.749 1.65.749.499 0 .929-.159 1.288-.476.36-.318.618-.817.775-1.498zm3.059-1.175c0-.948.142-1.743.426-2.386.211-.474.499-.9.863-1.276.368-.377.77-.656 1.206-.838.58-.246 1.248-.368 2.006-.368 1.371 0 2.467.425 3.288 1.276.825.85 1.238 2.033 1.238 3.548 0 1.502-.409 2.679-1.225 3.529-.817.847-1.909 1.27-3.276 1.27-1.383 0-2.484-.421-3.3-1.263-.817-.847-1.226-2.011-1.226-3.492zm1.937-.063c0 1.054.243 1.853.729 2.399.487.542 1.105.813 1.854.813.749 0 1.363-.269 1.841-.806.482-.542.723-1.352.723-2.432 0-1.066-.234-1.862-.704-2.386-.466-.525-1.086-.787-1.86-.787s-1.399.266-1.873.799c-.474.529-.71 1.329-.71 2.4zm8.582 4.659v-9.306h1.828l3.808 6.215v-6.215h1.746V245h-1.885l-3.752-6.068V245h-1.745zm11.47 0v-7.731h-2.761v-1.575h7.395v1.575h-2.755V245h-1.879zm13.279 0h-2.044l-.812-2.114h-3.72l-.768 2.114h-1.993l3.624-9.306h1.987l3.726 9.306zm-3.459-3.682l-1.283-3.453-1.256 3.453h2.539zm10.416.261l1.822.577c-.279 1.016-.745 1.771-1.397 2.266-.647.491-1.47.737-2.469.737-1.236 0-2.251-.421-3.047-1.263-.795-.847-1.193-2.002-1.193-3.466 0-1.549.4-2.751 1.2-3.606.799-.859 1.851-1.288 3.154-1.288 1.139 0 2.063.336 2.774 1.009.423.398.741.969.952 1.714l-1.859.444c-.11-.482-.341-.863-.692-1.142-.347-.28-.77-.419-1.27-.419-.69 0-1.25.247-1.682.742-.427.495-.641 1.297-.641 2.406 0 1.176.212 2.014.635 2.514.423.499.973.749 1.65.749.499 0 .929-.159 1.289-.476.359-.318.618-.817.774-1.498zm5.535 3.421v-7.731h-2.761v-1.575h7.395v1.575h-2.755V245h-1.879zm5.377-3.028l1.828-.178c.11.614.332 1.065.666 1.352.339.288.794.432 1.365.432.605 0 1.06-.127 1.365-.381.309-.258.463-.558.463-.901a.825.825 0 00-.197-.559c-.127-.156-.351-.292-.672-.406-.22-.076-.722-.212-1.505-.406-1.007-.25-1.714-.557-2.12-.921-.571-.512-.857-1.136-.857-1.872 0-.474.133-.916.4-1.327.271-.415.658-.73 1.162-.946.507-.215 1.119-.323 1.834-.323 1.168 0 2.046.256 2.634.768.593.512.904 1.195.934 2.05l-1.879.083c-.081-.479-.254-.821-.521-1.029-.262-.211-.658-.317-1.187-.317-.546 0-.973.112-1.282.336a.678.678 0 00-.298.578c0 .22.093.408.279.565.237.199.812.406 1.726.622.914.216 1.589.44 2.025.673.44.228.783.544 1.029.946.249.397.374.89.374 1.479 0 .533-.148 1.032-.444 1.498a2.684 2.684 0 01-1.257 1.041c-.542.224-1.217.336-2.025.336-1.176 0-2.08-.271-2.71-.812-.631-.546-1.008-1.34-1.13-2.381zM114.92 269v-9.306h2.812l1.689 6.348 1.669-6.348h2.819V269h-1.746v-7.325L120.316 269h-1.809l-1.841-7.325V269h-1.746zm10.855 0v-9.306h6.9v1.575h-5.021v2.063h4.672v1.567h-4.672v2.533h5.199V269h-7.078zm8.69 0v-9.306h1.828l3.809 6.215v-6.215h1.745V269h-1.885l-3.752-6.068V269h-1.745zm11.47 0v-7.731h-2.761v-1.575h7.395v1.575h-2.755V269h-1.879zm5.795 0v-9.306h1.879V269h-1.879zm3.295-4.596c0-.948.142-1.743.425-2.386.212-.474.5-.9.863-1.276a3.662 3.662 0 011.207-.838c.579-.246 1.248-.368 2.005-.368 1.371 0 2.468.425 3.288 1.276.826.85 1.238 2.033 1.238 3.548 0 1.502-.408 2.679-1.225 3.529-.817.847-1.908 1.27-3.275 1.27-1.384 0-2.484-.421-3.301-1.263-.817-.847-1.225-2.011-1.225-3.492zm1.936-.063c0 1.054.243 1.853.73 2.399.487.542 1.104.813 1.853.813.749 0 1.363-.269 1.841-.806.483-.542.724-1.352.724-2.432 0-1.066-.235-1.862-.705-2.386-.465-.525-1.085-.787-1.86-.787-.774 0-1.398.266-1.872.799-.474.529-.711 1.329-.711 2.4zm8.582 4.659v-9.306h1.828l3.809 6.215v-6.215h1.745V269h-1.885l-3.751-6.068V269h-1.746zm8.899-3.028l1.829-.178c.11.614.332 1.065.666 1.352.339.288.793.432 1.365.432.605 0 1.06-.127 1.365-.381.308-.258.463-.558.463-.901a.83.83 0 00-.197-.559c-.127-.156-.351-.292-.673-.406-.22-.076-.721-.212-1.504-.406-1.007-.25-1.714-.557-2.12-.921-.572-.512-.857-1.136-.857-1.872 0-.474.133-.916.4-1.327.271-.415.658-.73 1.161-.946.508-.215 1.12-.323 1.835-.323 1.168 0 2.046.256 2.634.768.593.512.904 1.195.933 2.05l-1.879.083c-.08-.479-.254-.821-.52-1.029-.263-.211-.658-.317-1.187-.317-.546 0-.974.112-1.282.336a.68.68 0 00-.299.578c0 .22.093.408.279.565.237.199.813.406 1.727.622.914.216 1.589.44 2.025.673.44.228.783.544 1.028.946.25.397.375.89.375 1.479 0 .533-.148 1.032-.445 1.498a2.687 2.687 0 01-1.256 1.041c-.542.224-1.217.336-2.025.336-1.177 0-2.08-.271-2.711-.812-.63-.546-1.007-1.34-1.13-2.381zM187.258 269v-9.229h1.879v7.661h4.672V269h-6.551zm7.897 0v-9.306h6.9v1.575h-5.021v2.063h4.672v1.567h-4.672v2.533h5.198V269h-7.077zm2.387-9.839l.875-1.898h2l-1.746 1.898h-1.129zm10.613 6.418v-1.568h4.05v3.707c-.394.381-.965.717-1.714 1.009-.745.288-1.5.432-2.266.432-.974 0-1.822-.203-2.546-.61a3.914 3.914 0 01-1.631-1.752 5.68 5.68 0 01-.546-2.482c0-.969.203-1.83.609-2.583a4.11 4.11 0 011.784-1.733c.597-.309 1.339-.463 2.228-.463 1.155 0 2.057.243 2.704.73.652.482 1.071 1.151 1.257 2.005l-1.866.35a1.947 1.947 0 00-.743-1.079c-.36-.267-.81-.4-1.352-.4-.821 0-1.475.26-1.961.78-.483.521-.724 1.293-.724 2.317 0 1.105.245 1.934.736 2.489.491.55 1.134.825 1.93.825.394 0 .787-.076 1.181-.229a4.12 4.12 0 001.022-.565v-1.18h-2.152zm14.18 3.421h-2.043l-.813-2.114h-3.72l-.768 2.114h-1.993l3.625-9.306h1.986l3.726 9.306zm-3.459-3.682l-1.282-3.453-1.257 3.453h2.539zm4.513 3.682v-9.229h1.879v7.661h4.672V269h-6.551zm7.897 0v-9.306h6.9v1.575h-5.021v2.063h4.671v1.567h-4.671v2.533h5.198V269h-7.077zm8.194-3.028l1.829-.178c.11.614.332 1.065.666 1.352.339.288.794.432 1.365.432.605 0 1.06-.127 1.365-.381.309-.258.463-.558.463-.901a.83.83 0 00-.197-.559c-.127-.156-.351-.292-.673-.406-.22-.076-.721-.212-1.504-.406-1.007-.25-1.714-.557-2.12-.921-.571-.512-.857-1.136-.857-1.872 0-.474.133-.916.4-1.327.271-.415.658-.73 1.161-.946.508-.215 1.12-.323 1.835-.323 1.168 0 2.046.256 2.634.768.593.512.904 1.195.933 2.05l-1.879.083c-.08-.479-.254-.821-.52-1.029-.263-.211-.658-.317-1.187-.317-.546 0-.973.112-1.282.336a.68.68 0 00-.299.578c0 .22.093.408.28.565.237.199.812.406 1.726.622.914.216 1.589.44 2.025.673.44.228.783.544 1.028.946.25.397.375.89.375 1.479 0 .533-.148 1.032-.444 1.498a2.694 2.694 0 01-1.257 1.041c-.542.224-1.217.336-2.025.336-1.177 0-2.08-.271-2.711-.812-.63-.546-1.007-1.34-1.13-2.381z" fill="#fff"/><g filter="url(#a)"><path d="M99.4 137c-1.6 0-2.4-.533-2.4-1.6v-24.76c0-.533.253-.947.76-1.24.507-.32 1.32-.48 2.44-.48h1c1.12 0 1.933.16 2.44.48.507.293.76.707.76 1.24v19.52h7.6c1.067 0 1.6.8 1.6 2.4v2.04c0 1.6-.533 2.4-1.6 2.4H99.4zm29.215.32c-4 0-7.107-.907-9.32-2.72-2.213-1.84-3.32-4.427-3.32-7.76V110.6c0-.56.253-.973.76-1.24.507-.293 1.32-.44 2.44-.44h1c1.12 0 1.933.147 2.44.44.507.267.76.68.76 1.24v15.84c0 1.307.44 2.307 1.32 3 .907.693 2.213 1.04 3.92 1.04 1.733 0 3.04-.347 3.92-1.04.88-.693 1.32-1.693 1.32-3V110.6c0-.56.253-.973.76-1.24.507-.293 1.32-.44 2.44-.44h1c1.12 0 1.933.147 2.44.44.507.267.76.68.76 1.24v16.24c0 3.333-1.12 5.92-3.36 7.76-2.213 1.813-5.307 2.72-9.28 2.72zm19.437-.24c-1.12 0-1.934-.147-2.44-.44-.507-.32-.76-.747-.76-1.28v-24.72c0-.533.253-.947.76-1.24.506-.32 1.32-.48 2.44-.48h1.36c.96 0 1.693.12 2.2.36.506.24.946.667 1.32 1.28l5.68 9.28c.213.347.413.72.6 1.12.213.4.373.72.48.96.133-.293.293-.64.48-1.04.213-.427.413-.787.6-1.08l5.52-9.2c.373-.613.813-1.04 1.32-1.28.533-.267 1.32-.4 2.36-.4h1.4c1.12 0 1.933.16 2.44.48.506.293.76.707.76 1.24v24.72c0 .533-.254.96-.76 1.28-.507.293-1.32.44-2.44.44h-.56c-1.12 0-1.934-.147-2.44-.44-.507-.32-.76-.747-.76-1.28v-10.48c0-.72.013-1.453.04-2.2a34.11 34.11 0 01.16-1.76l-.16-.04c-.107.267-.28.6-.52 1-.214.373-.4.693-.56.96l-3.72 6.08c-.32.507-.68.867-1.08 1.08-.374.213-.867.32-1.48.32h-1.16c-.587 0-1.08-.107-1.48-.32-.374-.213-.72-.573-1.04-1.08l-3.76-6.08a53.62 53.62 0 01-.56-.96c-.214-.4-.387-.733-.52-1l-.16.04c.053.427.093 1.013.12 1.76.053.747.08 1.48.08 2.2v10.48c0 .533-.254.96-.76 1.28-.507.293-1.32.44-2.44.44h-.56zm33.671 0c-1.12 0-1.934-.147-2.44-.44-.507-.32-.76-.747-.76-1.28v-24.72c0-.533.253-.947.76-1.24.506-.32 1.32-.48 2.44-.48h1c1.12 0 1.933.16 2.44.48.506.293.76.707.76 1.24v24.72c0 .533-.254.96-.76 1.28-.507.293-1.32.44-2.44.44h-1zm11.368 0c-1.12 0-1.934-.147-2.44-.44-.507-.32-.76-.747-.76-1.28v-24.72c0-.533.253-.947.76-1.24.506-.32 1.32-.48 2.44-.48h1.36c.96 0 1.693.12 2.2.36.506.24.946.667 1.32 1.28l5.68 9.28c.213.347.413.72.6 1.12.213.4.373.72.48.96.133-.293.293-.64.48-1.04.213-.427.413-.787.6-1.08l5.52-9.2c.373-.613.813-1.04 1.32-1.28.533-.267 1.32-.4 2.36-.4h1.4c1.12 0 1.933.16 2.44.48.506.293.76.707.76 1.24v24.72c0 .533-.254.96-.76 1.28-.507.293-1.32.44-2.44.44h-.56c-1.12 0-1.934-.147-2.44-.44-.507-.32-.76-.747-.76-1.28v-10.48c0-.72.013-1.453.04-2.2a34.11 34.11 0 01.16-1.76l-.16-.04c-.107.267-.28.6-.52 1-.214.373-.4.693-.56.96l-3.72 6.08c-.32.507-.68.867-1.08 1.08-.374.213-.867.32-1.48.32h-1.16c-.587 0-1.08-.107-1.48-.32-.374-.213-.72-.573-1.04-1.08l-3.76-6.08a53.62 53.62 0 01-.56-.96c-.214-.4-.387-.733-.52-1l-.16.04c.053.427.093 1.013.12 1.76.053.747.08 1.48.08 2.2v10.48c0 .533-.254.96-.76 1.28-.507.293-1.32.44-2.44.44h-.56zm33.671 0c-1.12 0-1.934-.147-2.44-.44-.507-.32-.76-.747-.76-1.28v-24.72c0-.533.253-.947.76-1.24.506-.32 1.32-.48 2.44-.48h1c1.12 0 1.933.16 2.44.48.506.293.76.707.76 1.24v24.72c0 .533-.254.96-.76 1.28-.507.293-1.32.44-2.44.44h-1zm8.608 0c-.907 0-1.587-.067-2.04-.2-.454-.16-.68-.427-.68-.8 0-.16.053-.347.16-.56.08-.24.213-.493.4-.76l7.88-12.36-6.8-10.88a9.664 9.664 0 01-.6-1.08c-.107-.293-.16-.533-.16-.72 0-.373.226-.6.68-.68.453-.08 1.16-.12 2.12-.12h2.84c.773 0 1.386.067 1.84.2.48.133.853.427 1.12.88l3.64 6.4 3.8-6.44c.293-.48.666-.773 1.12-.88.48-.107 1.106-.16 1.88-.16h1.96c.96 0 1.653.04 2.08.12.453.08.68.293.68.64 0 .187-.067.427-.2.72-.107.293-.307.667-.6 1.12l-7 11 7.64 12.24c.16.267.28.507.36.72.08.213.12.4.12.56 0 .4-.24.68-.72.84-.454.133-1.107.2-1.96.2h-2.76c-.774 0-1.4-.067-1.88-.2-.454-.133-.814-.427-1.08-.88l-4.4-7.56-4.52 7.6c-.294.507-.68.813-1.16.92-.454.08-1.067.12-1.84.12h-1.92z" fill="#fff"/></g><rect x="104.5" y="162.5" width="40" height="40" rx="20" stroke="#fff"/><path fill-rule="evenodd" clip-rule="evenodd" d="M142.426 168.615a4.006 4.006 0 00-1.172-2.83 4.007 4.007 0 00-2.831-1.172h-27.858c-1.062 0-2.08.422-2.831 1.172a4.006 4.006 0 00-1.172 2.83v27.859a4.004 4.004 0 004.003 4.003h27.858a4.003 4.003 0 004.003-4.003v-27.859z" fill="#000"/><path fill-rule="evenodd" clip-rule="evenodd" d="M120.948 183.404l-9.549-13.668h7.72l5.948 8.514 6.803-8.514h5.718l-9.854 12.331 9.282 13.286h-7.719l-5.681-8.132-6.498 8.132h-5.719l9.549-11.949zm9.243 10.234l-15.5-22.186h3.534l15.5 22.186h-3.534z" fill="#fff"/><path d="M74.504 162.5a20.023 20.023 0 0119.99 19.504l.006.497a20 20 0 11-20.736-19.987l.74-.014zm1.21 7.214a4.925 4.925 0 00-4.927 4.927v3.004h-1.704a.811.811 0 00-.514.183l-.058.054a.809.809 0 00-.238.572v3.638a.81.81 0 00.81.809h1.704v11.577a.811.811 0 00.81.808h4.413a.812.812 0 00.81-.808v-11.577h2.699v-.001a.808.808 0 00.808-.738v-.001l.304-3.637a.813.813 0 00-.017-.248l-.022-.081-.031-.077a.805.805 0 00-.33-.364l-.075-.038-.078-.03a.757.757 0 00-.245-.041h-3.014v-2.08a.595.595 0 01.598-.594h2.465a.81.81 0 00.808-.81v-3.639a.808.808 0 00-.182-.512l-.054-.06-.06-.054a.813.813 0 00-.512-.182h-4.168z" fill="#000" stroke="#fff"/><g clip-path="url(#b)"><rect x="154" y="161" width="42" height="42" rx="21" fill="#fff"/><path d="M183.527 175.549a3.621 3.621 0 00-2.078-2.076 6.04 6.04 0 00-2.03-.376c-1.153-.053-1.499-.066-4.419-.066-2.92 0-3.266.013-4.419.066a6.052 6.052 0 00-2.032.376 3.621 3.621 0 00-2.076 2.078 6.04 6.04 0 00-.376 2.03c-.053 1.153-.066 1.499-.066 4.419 0 2.92.013 3.266.066 4.419.008.694.135 1.381.376 2.032a3.621 3.621 0 002.078 2.076 6.04 6.04 0 002.03.376c1.153.053 1.499.066 4.419.066 2.92 0 3.266-.013 4.419-.066a6.052 6.052 0 002.032-.376 3.621 3.621 0 002.076-2.078 6.04 6.04 0 00.376-2.03c.053-1.153.066-1.499.066-4.419 0-2.92-.013-3.266-.066-4.419a6.052 6.052 0 00-.376-2.032zM175 187.618a5.62 5.62 0 01-5.51-6.714 5.613 5.613 0 011.538-2.876 5.613 5.613 0 016.122-1.218 5.616 5.616 0 011.822 9.162 5.614 5.614 0 01-3.972 1.646zm5.838-10.144a1.315 1.315 0 01-1.212-.81 1.32 1.32 0 01.284-1.431c.184-.183.418-.308.672-.359a1.313 1.313 0 11.256 2.6z" fill="#000"/><path d="M175 185.647a3.647 3.647 0 100-7.294 3.647 3.647 0 000 7.294z" fill="#000"/><path d="M175 161a21.004 21.004 0 00-19.401 12.964A20.998 20.998 0 10196 182c0-5.57-2.212-10.911-6.151-14.849A20.995 20.995 0 00175 161zm10.872 25.511a8.02 8.02 0 01-.51 2.653 5.595 5.595 0 01-3.198 3.198 8.02 8.02 0 01-2.653.51c-1.168.052-1.54.065-4.511.065s-3.342-.013-4.511-.065a8.02 8.02 0 01-2.653-.51 5.595 5.595 0 01-3.198-3.198 8.02 8.02 0 01-.51-2.653c-.052-1.169-.065-1.54-.065-4.511s.013-3.343.065-4.511a8.02 8.02 0 01.51-2.653 5.595 5.595 0 013.198-3.198 8.02 8.02 0 012.653-.51c1.169-.052 1.54-.066 4.511-.066s3.343.014 4.511.066a8.02 8.02 0 012.653.51 5.595 5.595 0 013.198 3.198 8.02 8.02 0 01.51 2.653c.052 1.168.066 1.54.066 4.511s-.014 3.342-.066 4.511z" fill="#000"/></g><rect x="154.5" y="161.5" width="41" height="41" rx="20.5" stroke="#fff"/><g clip-path="url(#c)" stroke="#fff" stroke-miterlimit="10"><path d="M242.013 161.311h-31.026a5.676 5.676 0 00-5.676 5.676v31.026a5.676 5.676 0 005.676 5.676h31.026a5.676 5.676 0 005.676-5.676v-31.026a5.676 5.676 0 00-5.676-5.676z"/><path d="M237.629 180.019c-.211 0-.423.031-.621.031a6.942 6.942 0 01-5.808-3.139v10.694a7.905 7.905 0 01-4.873 7.309 7.914 7.914 0 01-10.789-5.747 7.908 7.908 0 017.735-9.465h.491v3.892a4.23 4.23 0 00-.491-.049 4.04 4.04 0 100 8.082 4.134 4.134 0 004.197-3.985l.037-18.168h3.731a6.937 6.937 0 006.397 6.218v4.352"/></g><rect x="205.5" y="161.5" width="42" height="42" rx="21" stroke="#fff"/><g clip-path="url(#d)"><path fill-rule="evenodd" clip-rule="evenodd" d="M289.36 179.692c-.161-2.214-.565-4.501-3.396-4.669a140.178 140.178 0 00-15.931 0c-2.832.164-3.235 2.455-3.396 4.669a44.262 44.262 0 000 6.615c.161 2.215.564 4.502 3.396 4.67 5.306.302 10.625.302 15.931 0 2.831-.164 3.235-2.455 3.396-4.67a44.262 44.262 0 000-6.615zm-13.657 6.261v-6.562l6.235 3.281-6.235 3.281z" fill="#fff"/></g><rect x="257.5" y="162.5" width="41" height="41" rx="20.5" stroke="#fff"/><path stroke="#fff" d="M0 290.5L369 290.5"/><path d="M69.674 320.55l1.34-.117c.064.537.21.979.44 1.326.234.342.595.62 1.084.835.488.21 1.037.315 1.648.315.541 0 1.02-.081 1.435-.242.415-.161.723-.381.923-.659.205-.283.308-.591.308-.923 0-.337-.098-.63-.293-.879-.196-.254-.518-.466-.967-.637-.288-.112-.925-.286-1.912-.52-.986-.239-1.677-.464-2.073-.674-.512-.269-.896-.601-1.15-.996a2.485 2.485 0 01-.373-1.34c0-.542.154-1.048.461-1.517.308-.473.757-.832 1.348-1.076.59-.244 1.248-.366 1.97-.366.796 0 1.497.129 2.102.388.61.254 1.08.63 1.407 1.128a3.25 3.25 0 01.527 1.692l-1.362.102c-.074-.679-.323-1.191-.747-1.538-.42-.347-1.043-.52-1.868-.52-.86 0-1.487.159-1.882.476-.391.313-.586.691-.586 1.135 0 .386.139.703.417.953.273.249.986.505 2.139.769 1.157.258 1.95.485 2.38.681.625.288 1.087.654 1.384 1.098.298.44.447.948.447 1.524 0 .571-.163 1.111-.49 1.618-.328.503-.799.896-1.414 1.18-.61.278-1.299.417-2.066.417-.971 0-1.787-.141-2.446-.425a3.455 3.455 0 01-1.545-1.274 3.662 3.662 0 01-.586-1.934zM80 314.779v-1.516h1.318v1.516h-1.318zm0 9.221v-7.778h1.318V324h-1.318zm6.21-1.179l.191 1.164a4.905 4.905 0 01-.996.118c-.478 0-.85-.076-1.113-.228a1.274 1.274 0 01-.557-.593c-.107-.249-.16-.769-.16-1.56v-4.475h-.968v-1.025h.967v-1.927l1.311-.791v2.718h1.326v1.025h-1.326v4.548c0 .376.022.618.066.726a.582.582 0 00.227.256c.108.063.259.095.454.095.147 0 .34-.017.579-.051zm6.622-1.326l1.362.169c-.214.795-.612 1.413-1.194 1.853-.58.439-1.323.659-2.226.659-1.138 0-2.041-.349-2.71-1.048-.664-.703-.996-1.687-.996-2.951 0-1.309.337-2.324 1.01-3.047.674-.723 1.548-1.084 2.623-1.084 1.04 0 1.89.354 2.549 1.062.659.708.988 1.704.988 2.988 0 .078-.002.196-.007.352h-5.8c.048.854.29 1.509.724 1.963.435.454.977.681 1.626.681.484 0 .896-.127 1.238-.381.342-.254.613-.659.813-1.216zm-4.329-2.131h4.344c-.059-.655-.225-1.145-.498-1.472-.42-.508-.965-.762-1.634-.762-.605 0-1.115.203-1.53.608-.41.405-.638.947-.682 1.626zM101.468 324l-2.38-7.778h1.362l1.238 4.489.461 1.67.403-1.604 1.238-4.555h1.355l1.165 4.511.388 1.487.447-1.501 1.333-4.497h1.281L107.328 324h-1.37l-1.238-4.658-.3-1.326-1.575 5.984h-1.377zm14.729-2.505l1.363.169c-.215.795-.613 1.413-1.194 1.853-.581.439-1.324.659-2.227.659-1.138 0-2.041-.349-2.71-1.048-.664-.703-.996-1.687-.996-2.951 0-1.309.337-2.324 1.011-3.047.674-.723 1.548-1.084 2.622-1.084 1.04 0 1.89.354 2.549 1.062.659.708.989 1.704.989 2.988 0 .078-.003.196-.008.352h-5.801c.049.854.291 1.509.726 1.963.434.454.976.681 1.625.681.484 0 .896-.127 1.238-.381.342-.254.613-.659.813-1.216zm-4.328-2.131h4.343c-.059-.655-.225-1.145-.498-1.472-.42-.508-.964-.762-1.633-.762-.606 0-1.116.203-1.531.608-.41.405-.637.947-.681 1.626zm8.569 4.636h-1.223v-10.737h1.318v3.83c.557-.698 1.267-1.047 2.132-1.047.478 0 .93.098 1.355.293.429.19.781.461 1.054.813.279.347.496.766.652 1.26.156.493.234 1.02.234 1.582 0 1.333-.329 2.363-.988 3.09-.66.728-1.451 1.092-2.373 1.092-.918 0-1.639-.384-2.161-1.15V324zm-.015-3.948c0 .933.127 1.607.381 2.022.415.678.977 1.018 1.685 1.018.576 0 1.074-.249 1.494-.747.42-.503.63-1.25.63-2.241 0-1.016-.203-1.766-.608-2.249-.401-.483-.886-.725-1.458-.725-.576 0-1.074.251-1.494.754-.42.498-.63 1.221-.63 2.168zm11.324 6.929v-10.759h1.201v1.01c.283-.395.603-.69.959-.886.357-.2.789-.3 1.297-.3.664 0 1.25.171 1.757.513.508.341.892.825 1.15 1.45.259.62.389 1.301.389 2.043 0 .796-.145 1.514-.433 2.154-.283.634-.698 1.123-1.245 1.464a3.195 3.195 0 01-1.714.506c-.439 0-.835-.093-1.186-.279a2.689 2.689 0 01-.857-.703v3.787h-1.318zm1.193-6.826c0 1.001.203 1.741.608 2.219.406.479.896.718 1.473.718.585 0 1.086-.247 1.501-.74.42-.498.63-1.267.63-2.307 0-.991-.205-1.733-.615-2.227-.406-.493-.891-.739-1.458-.739-.561 0-1.059.263-1.494.791-.43.522-.645 1.284-.645 2.285zm12.232 2.886c-.488.415-.96.708-1.414.878a4.039 4.039 0 01-1.45.257c-.854 0-1.511-.208-1.97-.623-.459-.42-.689-.954-.689-1.604 0-.381.086-.727.257-1.04.176-.317.403-.571.681-.762.283-.19.601-.334.952-.432a9.42 9.42 0 011.172-.197c1.064-.127 1.848-.279 2.351-.455.005-.18.007-.295.007-.344 0-.537-.124-.915-.373-1.135-.337-.298-.838-.447-1.502-.447-.62 0-1.079.11-1.377.33-.293.215-.51.598-.651 1.15l-1.29-.176c.118-.552.311-.996.579-1.333.269-.342.657-.603 1.165-.784.507-.185 1.096-.278 1.765-.278.664 0 1.203.078 1.618.234.415.157.721.354.916.594.195.234.332.532.41.893.044.225.066.63.066 1.216v1.758c0 1.225.027 2.002.081 2.329.058.322.17.632.336.93h-1.376a2.784 2.784 0 01-.264-.959zm-.11-2.945c-.479.196-1.196.362-2.153.498-.542.078-.926.166-1.15.264a1.14 1.14 0 00-.703 1.055c0 .351.132.644.395.879.269.234.659.351 1.172.351.508 0 .96-.11 1.355-.33.396-.224.686-.529.872-.915.141-.298.212-.737.212-1.318v-.484zm3.369 3.904v-7.778h1.187v1.179c.302-.552.581-.916.835-1.091.258-.176.542-.264.849-.264.445 0 .896.142 1.355.425l-.454 1.223a1.88 1.88 0 00-.967-.286c-.288 0-.547.088-.776.264-.23.171-.393.41-.491.718a5.145 5.145 0 00-.219 1.538V324h-1.319zm9.295 0v-10.737h1.42v9.47h5.289V324h-6.709zm13.564-2.505l1.362.169c-.214.795-.612 1.413-1.194 1.853-.581.439-1.323.659-2.226.659-1.138 0-2.041-.349-2.71-1.048-.664-.703-.996-1.687-.996-2.951 0-1.309.337-2.324 1.011-3.047.673-.723 1.547-1.084 2.622-1.084 1.04 0 1.889.354 2.549 1.062.659.708.988 1.704.988 2.988 0 .078-.002.196-.007.352h-5.801c.049.854.291 1.509.725 1.963.435.454.977.681 1.626.681.484 0 .896-.127 1.238-.381.342-.254.613-.659.813-1.216zm-4.329-2.131h4.344c-.059-.655-.225-1.145-.498-1.472-.42-.508-.965-.762-1.634-.762-.605 0-1.115.203-1.53.608-.411.405-.638.947-.682 1.626zm1.421-4.109l.974-2.051h1.729l-1.611 2.051h-1.092zm5.442 4.856c0-1.441.401-2.507 1.201-3.201.669-.576 1.485-.864 2.447-.864 1.069 0 1.943.351 2.622 1.055.678.698 1.018 1.665 1.018 2.9 0 1.001-.152 1.79-.454 2.366a3.173 3.173 0 01-1.311 1.333 3.804 3.804 0 01-1.875.476c-1.089 0-1.971-.349-2.644-1.048-.669-.698-1.004-1.704-1.004-3.017zm1.355 0c0 .996.217 1.743.652 2.241.435.493.981.74 1.641.74.654 0 1.198-.249 1.633-.747.435-.498.652-1.258.652-2.278 0-.962-.22-1.69-.659-2.183-.435-.498-.977-.747-1.626-.747-.66 0-1.206.247-1.641.74-.435.493-.652 1.238-.652 2.234zm7.486 3.889v-7.778h1.186v1.106c.571-.855 1.397-1.282 2.476-1.282.468 0 .898.085 1.289.256.395.166.691.386.886.659.195.274.332.599.41.975.049.244.073.671.073 1.281V324h-1.318v-4.731c0-.538-.051-.938-.154-1.202a1.24 1.24 0 00-.549-.637 1.699 1.699 0 00-.916-.242c-.561 0-1.047.179-1.457.535-.405.357-.608 1.033-.608 2.029V324h-1.318zm8.356-9.221v-1.516h1.319v1.516h-1.319zm0 9.221v-7.778h1.319V324h-1.319zm8.658-2.505l1.362.169c-.215.795-.613 1.413-1.194 1.853-.581.439-1.323.659-2.226.659-1.138 0-2.041-.349-2.71-1.048-.664-.703-.996-1.687-.996-2.951 0-1.309.336-2.324 1.01-3.047.674-.723 1.548-1.084 2.622-1.084 1.04 0 1.89.354 2.549 1.062.659.708.989 1.704.989 2.988 0 .078-.002.196-.007.352h-5.801c.049.854.29 1.509.725 1.963.435.454.977.681 1.626.681.483 0 .896-.127 1.238-.381.342-.254.613-.659.813-1.216zm-4.329-2.131h4.343c-.058-.655-.224-1.145-.498-1.472-.42-.508-.964-.762-1.633-.762-.605 0-1.116.203-1.531.608-.41.405-.637.947-.681 1.626zM207.047 324v-10.737h4.05c.713 0 1.257.034 1.633.102.528.088.97.257 1.326.506.357.244.642.588.857 1.032.22.445.33.933.33 1.465 0 .913-.291 1.687-.872 2.322-.581.63-1.631.945-3.149.945h-2.754V324h-1.421zm1.421-5.632h2.776c.918 0 1.569-.171 1.955-.513.386-.342.579-.823.579-1.443 0-.449-.115-.832-.344-1.15a1.576 1.576 0 00-.894-.637c-.239-.063-.681-.095-1.326-.095h-2.746v3.838zm8.606 5.632v-10.737h4.76c.958 0 1.685.097 2.183.293.498.19.896.529 1.194 1.018.298.488.447 1.028.447 1.618 0 .762-.247 1.404-.74 1.927-.493.522-1.255.854-2.285.996.376.18.661.359.857.534a7.37 7.37 0 011.179 1.429l1.868 2.922h-1.787l-1.421-2.234a20.094 20.094 0 00-1.026-1.479c-.268-.342-.51-.581-.725-.718a2.095 2.095 0 00-.644-.286c-.162-.034-.425-.051-.791-.051h-1.648V324h-1.421zm1.421-5.999h3.054c.649 0 1.157-.065 1.523-.197.366-.137.645-.352.835-.645.191-.298.286-.62.286-.967 0-.507-.186-.925-.557-1.252-.366-.327-.947-.491-1.743-.491h-3.398v3.552zm16.443-4.738h1.42v6.203c0 1.079-.122 1.936-.366 2.571-.244.635-.686 1.152-1.325 1.553-.635.395-1.47.593-2.505.593-1.006 0-1.829-.173-2.469-.52a2.972 2.972 0 01-1.369-1.501c-.274-.66-.41-1.558-.41-2.696v-6.203h1.42v6.196c0 .933.086 1.621.257 2.065.176.44.473.779.893 1.018.425.24.943.359 1.553.359 1.045 0 1.79-.236 2.234-.71.444-.474.667-1.384.667-2.732v-6.196zM238.717 324v-10.737h1.457l5.64 8.43v-8.43h1.362V324h-1.457l-5.64-8.438V324h-1.362zm11.096 0v-10.737h1.421V324h-1.421zm2.754 0l4.123-10.737h1.531L262.616 324h-1.619l-1.252-3.252h-4.49L254.076 324h-1.509zm3.098-4.409h3.64l-1.12-2.974a29.27 29.27 0 01-.762-2.226c-.137.688-.33 1.372-.579 2.05l-1.179 3.15zm15.132-6.328h1.421v6.203c0 1.079-.122 1.936-.366 2.571-.245.635-.686 1.152-1.326 1.553-.635.395-1.47.593-2.505.593-1.006 0-1.829-.173-2.468-.52a2.974 2.974 0 01-1.37-1.501c-.273-.66-.41-1.558-.41-2.696v-6.203h1.421v6.196c0 .933.085 1.621.256 2.065.176.44.474.779.894 1.018.425.24.942.359 1.552.359 1.045 0 1.79-.236 2.234-.71.445-.474.667-1.384.667-2.732v-6.196zM273.5 324l4.152-5.596-3.662-5.141h1.692l1.948 2.754c.406.571.694 1.01.865 1.318.239-.391.522-.798.849-1.223l2.161-2.849h1.545l-3.772 5.061 4.065 5.676h-1.758l-2.702-3.831a17.692 17.692 0 01-.469-.717c-.239.39-.41.659-.513.805L275.206 324H273.5z" fill="#fff"/><defs><clipPath id="b"><rect x="154" y="161" width="42" height="42" rx="21" fill="#fff"/></clipPath><clipPath id="c"><rect x="205" y="161" width="43" height="43" rx="21.5" fill="#fff"/></clipPath><clipPath id="d"><rect x="257" y="162" width="42" height="42" rx="21" fill="#fff"/></clipPath><filter id="a" x="53.5" y="56.42" width="273.61" height="141.4" filterUnits="userSpaceOnUse" color-interpolation-filters="sRGB"><feFlood flood-opacity="0" result="BackgroundImageFix"/><feColorMatrix in="SourceAlpha" values="0 0 0 0 0 0 0 0 0 0 0 0 0 0 0 0 0 0 127 0" result="hardAlpha"/><feOffset dx="13" dy="4"/><feGaussianBlur stdDeviation="28.25"/><feComposite in2="hardAlpha" operator="out"/><feColorMatrix values="0 0 0 0 1 0 0 0 0 1 0 0 0 0 1 0 0 0 0.69 0"/><feBlend in2="BackgroundImageFix" result="effect1_dropShadow_75_25"/><feBlend in="SourceGraphic" in2="effect1_dropShadow_75_25" result="shape"/></filter></defs></svg>