<svg width="42" height="42" fill="none" xmlns="http://www.w3.org/2000/svg"><circle cx="21" cy="21" r="21" fill="#fff"/><path d="M12.23 26V15.263h7.244v1.267h-5.823v3.325h5.04v1.267h-5.04V26h-1.42zm10.12 0V15.263h4.76c.957 0 1.684.097 2.183.293.498.19.896.53 1.193 1.018.298.488.447 1.028.447 1.618 0 .762-.247 1.404-.74 1.927-.493.522-1.255.854-2.285.996.376.18.662.359.857.534.415.381.808.857 1.18 1.429L31.811 26h-1.787l-1.421-2.234a20.344 20.344 0 00-1.025-1.48c-.269-.341-.51-.58-.726-.717a2.088 2.088 0 00-.644-.286c-.161-.034-.425-.051-.791-.051H23.77V26h-1.42zm1.42-5.998h3.054c.65 0 1.157-.066 1.524-.198.366-.137.644-.352.835-.645.19-.298.285-.62.285-.967 0-.507-.185-.925-.556-1.252-.367-.327-.948-.49-1.743-.49H23.77v3.552z" fill="#000"/></svg>