<svg width="42" height="42" fill="none" xmlns="http://www.w3.org/2000/svg"><circle cx="21" cy="21" r="21" fill="#F61FF1"/><path fill-rule="evenodd" clip-rule="evenodd" d="M27.78 24.7a.914.914 0 00.22-.599.914.914 0 00-.22-.599l-6.197-7.006a1.468 1.468 0 00-.483-.367 1.36 1.36 0 00-1.154 0 1.47 1.47 0 00-.483.367l-6.244 7.057a.93.93 0 00-.008 1.19c.068.08.15.145.242.189a.68.68 0 00.583.004.735.735 0 00.244-.185l5.713-6.458a.733.733 0 01.242-.184.68.68 0 01.577 0 .734.734 0 01.241.184l5.668 6.406c.068.079.15.141.242.184a.679.679 0 00.576 0 .732.732 0 00.242-.183z" fill="#fff"/></svg>