<svg width="113" height="47" fill="none" xmlns="http://www.w3.org/2000/svg"><rect x=".5" y="7.5" width="112" height="39" rx="18.5" fill="#fff" stroke="#fff"/><path d="M15.952 32v-9.306h1.88v3.663h3.68v-3.663h1.88V32h-1.88v-4.069h-3.68V32h-1.88zm9.331 0v-9.306h1.88V32h-1.88zm3.2-3.028l1.828-.178c.11.614.332 1.065.666 1.352.339.288.793.432 1.365.432.605 0 1.06-.127 1.364-.38.31-.259.464-.56.464-.902a.826.826 0 00-.197-.559c-.127-.156-.351-.292-.673-.406-.22-.076-.721-.212-1.504-.406-1.007-.25-1.714-.557-2.12-.92-.571-.513-.857-1.137-.857-1.873 0-.474.133-.916.4-1.327.27-.415.658-.73 1.161-.946.508-.215 1.12-.323 1.835-.323 1.168 0 2.046.256 2.634.768.593.512.904 1.195.933 2.05l-1.879.082c-.08-.478-.254-.82-.52-1.028-.263-.211-.658-.317-1.187-.317-.546 0-.973.112-1.282.336a.678.678 0 00-.299.578c0 .22.093.408.28.565.236.199.812.406 1.726.622.914.216 1.59.44 2.025.673.44.228.783.544 1.028.946.25.397.375.89.375 1.479a2.74 2.74 0 01-.444 1.498 2.681 2.681 0 01-1.257 1.04c-.542.225-1.217.337-2.025.337-1.177 0-2.08-.27-2.71-.813-.631-.545-1.008-1.339-1.13-2.38zM39.723 32v-7.731h-2.761v-1.575h7.395v1.575h-2.755V32h-1.879zm5.23-4.596c0-.948.142-1.743.426-2.386.212-.474.5-.9.863-1.276.368-.377.77-.656 1.206-.838.58-.246 1.249-.368 2.006-.368 1.371 0 2.467.425 3.288 1.275.825.851 1.238 2.034 1.238 3.549 0 1.502-.408 2.679-1.225 3.53-.817.845-1.909 1.269-3.276 1.269-1.383 0-2.484-.421-3.3-1.264-.817-.846-1.225-2.01-1.225-3.49zm1.937-.063c0 1.053.243 1.853.73 2.4.486.54 1.104.812 1.853.812.75 0 1.363-.269 1.84-.806.483-.542.725-1.352.725-2.432 0-1.066-.235-1.862-.705-2.386-.466-.525-1.086-.787-1.86-.787s-1.398.266-1.872.8c-.474.528-.711 1.328-.711 2.399zM55.46 32v-9.306h3.955c.994 0 1.715.085 2.164.254.453.165.815.462 1.086.889.27.427.406.916.406 1.466 0 .698-.205 1.276-.616 1.733-.41.453-1.024.739-1.84.857.405.237.74.497 1.002.78.267.284.624.788 1.073 1.512L63.826 32H61.58l-1.358-2.025c-.483-.724-.813-1.178-.99-1.365a1.4 1.4 0 00-.566-.387c-.198-.072-.514-.108-.945-.108h-.381V32H55.46zm1.879-5.37h1.39c.901 0 1.464-.038 1.688-.114.225-.076.4-.208.527-.394.127-.186.19-.419.19-.698 0-.313-.084-.565-.253-.755-.165-.195-.4-.318-.705-.369-.152-.02-.61-.031-1.37-.031h-1.467v2.36zM64.79 32v-9.306h1.879V32H64.79zm11.166-1.18c.46.33.962.592 1.504.786l-.692 1.327a4.283 4.283 0 01-.832-.349c-.059-.03-.476-.305-1.25-.825-.61.266-1.284.4-2.025.4-1.43 0-2.552-.421-3.364-1.264-.808-.842-1.213-2.024-1.213-3.548 0-1.519.407-2.7 1.22-3.542.812-.846 1.914-1.27 3.306-1.27 1.38 0 2.474.424 3.282 1.27.808.842 1.213 2.023 1.213 3.542 0 .804-.113 1.51-.337 2.12-.17.466-.44.917-.813 1.352zm-1.511-1.06c.241-.284.42-.627.54-1.029.122-.402.183-.863.183-1.384 0-1.075-.236-1.877-.71-2.406-.475-.533-1.094-.8-1.86-.8s-1.388.267-1.867.8c-.474.534-.71 1.335-.71 2.406 0 1.088.236 1.902.71 2.444.479.537 1.082.806 1.81.806.27 0 .526-.044.768-.133a5.432 5.432 0 00-1.162-.584l.527-1.073a6.382 6.382 0 011.77.952zm4.126-7.066h1.879v5.04c0 .8.023 1.319.07 1.556.08.38.27.687.57.92.306.229.72.343 1.245.343.533 0 .935-.108 1.206-.324.27-.22.434-.489.489-.806.055-.317.082-.844.082-1.58v-5.149h1.88v4.888c0 1.117-.052 1.906-.153 2.368-.102.461-.29.85-.565 1.168-.27.317-.635.571-1.092.761-.457.187-1.054.28-1.79.28-.889 0-1.564-.102-2.025-.305-.457-.207-.819-.474-1.085-.8a2.588 2.588 0 01-.527-1.034c-.123-.534-.184-1.32-.184-2.362v-4.964zM87.979 32v-9.306h6.9v1.575h-5.021v2.063h4.672v1.567h-4.672v2.533h5.199V32h-7.078z" fill="#000"/></svg>