<svg width="274" height="142" fill="none" xmlns="http://www.w3.org/2000/svg"><g filter="url(#a)"><path d="M45.9 80.58c-1.6 0-2.4-.533-2.4-1.6V54.22c0-.533.253-.947.76-1.24.507-.32 1.32-.48 2.44-.48h1c1.12 0 1.933.16 2.44.48.507.293.76.707.76 1.24v19.52h7.6c1.067 0 1.6.8 1.6 2.4v2.04c0 1.6-.533 2.4-1.6 2.4H45.9zm29.215.32c-4 0-7.107-.907-9.32-2.72-2.213-1.84-3.32-4.427-3.32-7.76V54.18c0-.56.253-.973.76-1.24.507-.293 1.32-.44 2.44-.44h1c1.12 0 1.933.147 2.44.44.507.267.76.68.76 1.24v15.84c0 1.307.44 2.307 1.32 3 .907.693 2.213 1.04 3.92 1.04 1.733 0 3.04-.347 3.92-1.04.88-.693 1.32-1.693 1.32-3V54.18c0-.56.253-.973.76-1.24.507-.293 1.32-.44 2.44-.44h1c1.12 0 1.933.147 2.44.44.507.267.76.68.76 1.24v16.24c0 3.333-1.12 5.92-3.36 7.76-2.213 1.813-5.307 2.72-9.28 2.72zm19.437-.24c-1.12 0-1.934-.147-2.44-.44-.507-.32-.76-.747-.76-1.28V54.22c0-.533.253-.947.76-1.24.506-.32 1.32-.48 2.44-.48h1.36c.96 0 1.693.12 2.2.36.506.24.946.667 1.32 1.28l5.68 9.28c.213.347.413.72.6 1.12.213.4.373.72.48.96.133-.293.293-.64.48-1.04.213-.427.413-.787.6-1.08l5.52-9.2c.373-.613.813-1.04 1.32-1.28.533-.267 1.32-.4 2.36-.4h1.4c1.12 0 1.933.16 2.44.48.506.293.76.707.76 1.24v24.72c0 .533-.254.96-.76 1.28-.507.293-1.32.44-2.44.44h-.56c-1.12 0-1.934-.147-2.44-.44-.507-.32-.76-.747-.76-1.28V68.46c0-.72.013-1.453.04-2.2a34.11 34.11 0 01.16-1.76l-.16-.04c-.107.267-.28.6-.52 1-.214.373-.4.693-.56.96l-3.72 6.08c-.32.507-.68.867-1.08 1.08-.374.213-.867.32-1.48.32h-1.16c-.587 0-1.08-.107-1.48-.32-.374-.213-.72-.573-1.04-1.08l-3.76-6.08c-.16-.267-.347-.587-.56-.96a43.79 43.79 0 01-.52-1l-.16.04c.053.427.093 1.013.12 1.76.053.747.08 1.48.08 2.2v10.48c0 .533-.254.96-.76 1.28-.507.293-1.32.44-2.44.44h-.56zm33.671 0c-1.12 0-1.934-.147-2.44-.44-.507-.32-.76-.747-.76-1.28V54.22c0-.533.253-.947.76-1.24.506-.32 1.32-.48 2.44-.48h1c1.12 0 1.933.16 2.44.48.506.293.76.707.76 1.24v24.72c0 .533-.254.96-.76 1.28-.507.293-1.32.44-2.44.44h-1zm11.368 0c-1.12 0-1.934-.147-2.44-.44-.507-.32-.76-.747-.76-1.28V54.22c0-.533.253-.947.76-1.24.506-.32 1.32-.48 2.44-.48h1.36c.96 0 1.693.12 2.2.36.506.24.946.667 1.32 1.28l5.68 9.28c.213.347.413.72.6 1.12.213.4.373.72.48.96.133-.293.293-.64.48-1.04.213-.427.413-.787.6-1.08l5.52-9.2c.373-.613.813-1.04 1.32-1.28.533-.267 1.32-.4 2.36-.4h1.4c1.12 0 1.933.16 2.44.48.506.293.76.707.76 1.24v24.72c0 .533-.254.96-.76 1.28-.507.293-1.32.44-2.44.44h-.56c-1.12 0-1.934-.147-2.44-.44-.507-.32-.76-.747-.76-1.28V68.46c0-.72.013-1.453.04-2.2a34.11 34.11 0 01.16-1.76l-.16-.04c-.107.267-.28.6-.52 1-.214.373-.4.693-.56.96l-3.72 6.08c-.32.507-.68.867-1.08 1.08-.374.213-.867.32-1.48.32h-1.16c-.587 0-1.08-.107-1.48-.32-.374-.213-.72-.573-1.04-1.08l-3.76-6.08c-.16-.267-.347-.587-.56-.96-.214-.4-.387-.733-.52-1l-.16.04c.053.427.093 1.013.12 1.76.053.747.08 1.48.08 2.2v10.48c0 .533-.254.96-.76 1.28-.507.293-1.32.44-2.44.44h-.56zm33.671 0c-1.12 0-1.934-.147-2.44-.44-.507-.32-.76-.747-.76-1.28V54.22c0-.533.253-.947.76-1.24.506-.32 1.32-.48 2.44-.48h1c1.12 0 1.933.16 2.44.48.506.293.76.707.76 1.24v24.72c0 .533-.254.96-.76 1.28-.507.293-1.32.44-2.44.44h-1zm8.608 0c-.907 0-1.587-.067-2.04-.2-.454-.16-.68-.427-.68-.8 0-.16.053-.347.16-.56.08-.24.213-.493.4-.76l7.88-12.36-6.8-10.88a9.61 9.61 0 01-.6-1.08c-.107-.293-.16-.533-.16-.72 0-.373.226-.6.68-.68.453-.08 1.16-.12 2.12-.12h2.84c.773 0 1.386.067 1.84.2.48.133.853.427 1.12.88l3.64 6.4 3.8-6.44c.293-.48.666-.773 1.12-.88.48-.107 1.106-.16 1.88-.16h1.96c.96 0 1.653.04 2.08.12.453.08.68.293.68.64 0 .187-.067.427-.2.72-.107.293-.307.667-.6 1.12l-7 11 7.64 12.24c.16.267.28.507.36.72.08.213.12.4.12.56 0 .4-.24.68-.72.84-.454.133-1.107.2-1.96.2h-2.76c-.774 0-1.4-.067-1.88-.2-.454-.133-.814-.427-1.08-.88l-4.4-7.56-4.52 7.6c-.294.507-.68.813-1.16.92-.454.08-1.067.12-1.84.12h-1.92z" fill="#fff"/></g><defs><filter id="a" x="0" y="0" width="273.61" height="141.4" filterUnits="userSpaceOnUse" color-interpolation-filters="sRGB"><feFlood flood-opacity="0" result="BackgroundImageFix"/><feColorMatrix in="SourceAlpha" values="0 0 0 0 0 0 0 0 0 0 0 0 0 0 0 0 0 0 127 0" result="hardAlpha"/><feOffset dx="13" dy="4"/><feGaussianBlur stdDeviation="28.25"/><feComposite in2="hardAlpha" operator="out"/><feColorMatrix values="0 0 0 0 1 0 0 0 0 1 0 0 0 0 1 0 0 0 0.69 0"/><feBlend in2="BackgroundImageFix" result="effect1_dropShadow_75_4"/><feBlend in="SourceGraphic" in2="effect1_dropShadow_75_4" result="shape"/></filter></defs></svg>