<svg width="41" height="41" fill="none" xmlns="http://www.w3.org/2000/svg"><rect x=".5" y=".5" width="40" height="40" rx="20" stroke="#fff"/><g clip-path="url(#a)"><mask id="b" style="mask-type:luminance" maskUnits="userSpaceOnUse" x="5" y="6" width="30" height="30"><path d="M35 6H5v30h30V6z" fill="#fff"/></mask><g mask="url(#b)"><path d="M31.484 6H8.516A3.516 3.516 0 005 9.516v22.968A3.516 3.516 0 008.516 36h22.968A3.516 3.516 0 0035 32.484V9.516A3.516 3.516 0 0031.484 6z" fill="#000"/><path d="M25.854 11.86h3.101l-6.775 7.743 7.97 10.538h-6.24L19.02 23.75l-5.593 6.39h-3.103l7.247-8.282-7.646-9.999h6.399l4.418 5.842 5.11-5.842zm-1.089 16.424h1.719L15.39 13.618h-1.844l11.218 14.666z" fill="#fff"/></g></g><defs><clipPath id="a"><path fill="#fff" transform="translate(5 6)" d="M0 0H30V30H0z"/></clipPath></defs></svg>